<svg xmlns="http://www.w3.org/2000/svg" viewBox="0 0 512 512" role="img" aria-label="Rey Portfolio OS">
  <defs>
    <linearGradient id="bg" x1="0" y1="0" x2="1" y2="1"><stop stop-color="#0c1e3b"/><stop offset="1" stop-color="#071326"/></linearGradient>
    <linearGradient id="mark" x1="0" y1="0" x2="1" y2="1"><stop stop-color="#87ddff"/><stop offset="1" stop-color="#3178f2"/></linearGradient>
  </defs>
  <rect width="512" height="512" rx="112" fill="url(#bg)"/>
  <circle cx="370" cy="140" r="170" fill="#4b61ff" opacity=".16"/>
  <circle cx="120" cy="410" r="180" fill="#1ccdb6" opacity=".11"/>
  <g fill="url(#mark)"><rect x="106" y="106" width="140" height="140" rx="24"/><rect x="266" y="106" width="140" height="140" rx="24"/><rect x="106" y="266" width="140" height="140" rx="24"/><rect x="266" y="266" width="140" height="140" rx="24"/></g>
  <path d="M146 360V154h82c48 0 79 26 79 67 0 29-16 51-43 61l55 78h-55l-45-69h-27v69h-46zm46-108h31c23 0 37-11 37-30s-14-29-37-29h-31v59z" fill="#fff" opacity=".96"/>
</svg>
